#!OML:ASF F:\VICON\USERDATA\INSTALL\rory3\rory3.ASF
:FULLY-SPECIFIED
:DEGREES
18
root 0.5533720367526958 17.617995367349224 -13.903096589928648 6.838229537205672 -1.5668691194347373 -0.9166610025733225
lfemur -12.405711887674837 6.002036573147874 -18.824706819233135
ltibia 18.999108631261734
lfoot -10.847301492603744 7.062400685368383
ltoes 6.014596545065336
rfemur -14.292410453883516 -2.772643461753475 19.318205654106322
rtibia 22.959908645359093
rfoot -14.265299994765796 -4.094341064210572
rtoes 12.117096699832658
lowerback -3.426627161830404 -0.27648471420048204 -0.15363152428788263
upperback 3.3434744422035374 -0.4223307392190655 1.250179647930713
thorax 5.393959883551518 -0.24224746844175932 1.3480409601206325
lowerneck -12.69640032729513 1.0827048254067673 -1.6593525959813231
upperneck 33.55539282837275 1.6780447620792613 1.034870598350303
head 13.374392330560685 0.6543389165623799 0.948165068169358
lclavicle -1.1859569537963999e-17 -8.162223727655668e-16
lhumerus -20.034492703866267 -3.653939159474141 89.15040522986621
lradius 20.477610076157262
lwrist 0.7487961565235768
lhand -24.05360629701374 -2.53078667437516
lfingers 7.125019999999999
lthumb 2.4255637353304915 27.435193251097488
rclavicle -1.1859569537963999e-17 -8.162223727655668e-16
rhumerus -22.997186230466756 -13.969984457356887 -81.57681245804888
rradius 25.819110094895585
rwrist 32.04758454153679
rhand -17.9141028449438 -27.025595646296487
rfingers 7.125019999999999
rthumb 8.353247122039276 -56.84049595981361
19
root 0.5539400106486213 17.617995367349224 -13.902696579803548 6.850909361267849 -1.5809790058479176 -0.9273227150869342
lfemur -12.421711464321902 6.014866365076477 -18.817306908046874
ltibia 19.012908690363233
lfoot -10.853301507015894 7.076410638106198
ltoes 6.022616498274805
rfemur -14.299509729466449 -2.76977349248955 19.32830557336372
rtibia 22.94760870434135
rfoot -14.255000012697241 -4.08404109495919
rtoes 12.112196672556323
lowerback -3.380087240917441 -0.2836975748050401 -0.14873257407274348
upperback 3.3673742935126034 -0.4326745903483346 1.2583793784703765
thorax 5.392709857395448 -0.2474563250367033 1.3531208483452435
lowerneck -12.681200408412527 1.0560949331467544 -1.6929223021010722
upperneck 33.57369237469836 1.655134789174921 1.0124007302418947
head 13.379492401604317 0.6367530669957513 0.9418491684167686
lclavicle -1.1859577360580196e-17 -8.16222362092744e-16
lhumerus -20.240192002360082 -2.8099501131426265 88.70460673792307
lradius 19.840611846417392
lwrist -0.025011339940704147
lhand -24.12020603955053 -2.6398160506698467
lfingers 7.125019999999999
lthumb 2.3612538088977297 27.326893889868458
rclavicle -1.1859577360580196e-17 -8.16222362092744e-16
rhumerus -23.213785401328757 -14.710283260197517 -81.07291431789785
rradius 25.35141126262967
rwrist 32.667282814197044
rhand -17.829403343388815 -27.054895313509753
rfingers 7.125019999999999
rthumb 8.434986677591175 -56.86639568832919
20
root 0.5542459991884281 17.618595359278242 -13.902096642620991 6.878069339691004 -1.5896489400771938 -0.938271418247616
lfemur -12.452010793085346 6.020186296334216 -18.80880697582078
ltibia 19.019008173624734
lfoot -10.86070146665362 7.076490629780898
ltoes 5.984186511732709
rfemur -14.321210048317056 -2.762783540737051 19.34040542824878
rtibia 22.933308845530718
rfoot -14.251600018784497 -4.080111110640174
rtoes 12.104996727828947
lowerback -3.3548372726665017 -0.2898584516519012 -0.1506775643959936
upperback 3.3790942724876714 -0.4411214748391137 1.2651691617182368
thorax 5.390849863355795 -0.2519092011305708 1.360670696368103
lowerneck -12.686300384305948 1.0258050367500522 -1.722882068893706
upperneck 33.63449266786061 1.6197150163602838 1.0098907415850653
head 13.407492274290428 0.6163312146061484 0.9416701728949218
lclavicle -1.1859584677287155e-17 -8.162223813859202e-16
lhumerus -20.426891464163575 -2.1722704311559315 88.34450774707862
lradius 19.376513016703576
lwrist -0.5358062117987092
lhand -24.047606301891438 -2.562626468852528
lfingers 7.125019999999999
lthumb 2.431343626716579 27.403293460194433
rclavicle -1.1859584677287155e-17 -8.162223813859202e-16
rhumerus -23.436684454852337 -15.149182547020038 -80.69341575138598
rradius 25.07691150383603
rwrist 33.03668152433759
rhand -17.78480356260271 -27.12039453945702
rfingers 7.125019999999999
rthumb 8.477986427595749 -56.93019497156944
21
root 0.5544639883019717 17.619095341883625 -13.902696579803548 6.9108193625973 -1.5961288843826507 -0.9465012025634962
lfemur -12.488611825482504 6.007946469253605 -18.803107063440216
ltibia 19.02160842462953
lfoot -10.850001470020581 7.093450556778629
ltoes 5.970036587212896
rfemur -14.357209969542065 -2.7732634705654307 19.35050534750618
rtibia 22.925808544819013
rfoot -14.239300040100776 -4.056481210466491
rtoes 12.140196522499652
lowerback -3.3347069229300006 -0.2972863110819587 -0.1638354130343357
upperback 3.383064138463392 -0.4507043354185717 1.2751188675490883
thorax 5.383979819563326 -0.25738305036727016 1.3776603822491449
lowerneck -12.676400437421757 1.0009451606009392 -1.7441618916631598
upperneck 33.68519261126079 1.5920450252510823 0.9998787954373106
head 13.4278921294369 0.5995392938375137 0.937863235121643
lclavicle -1.1859575492494329e-17 -8.162224017053678e-16
lhumerus -20.595390745119943 -1.704810839129589 88.08950851612343
lradius 19.188713679748496
lwrist -0.8215841797132128
lhand -23.691007411233592 -2.0585693848975994
lfingers 7.125019999999999
lthumb 2.7757625724954176 27.90309054298063
rclavicle -1.1859575492494329e-17 -8.162224017053678e-16
rhumerus -23.576684090879922 -15.462082130363004 -80.42181659766311
rradius 24.860012354374277
rwrist 33.30608075130479
rhand -17.81140342371911 -27.114394609184576
rfingers 7.125019999999999
rthumb 8.452316584099709 -56.925295039624814
22
root 0.5548979709591702 17.619395348516935 -13.90389661017885 6.931329246068849 -1.608498793702222 -0.9492881173772393
lfemur -12.513910851583525 6.000846592140755 -18.80430701897195
ltibia 19.016808631317495
lfoot -10.838501504687216 7.117930454165244
ltoes 5.9608965921975425
rfemur -14.385810887023224 -2.7772434090563447 19.35240535526822
rtibia 22.921808709233233
rfoot -14.233300049589197 -4.038621274127612
rtoes 12.15139650141244
lowerback -3.303336783045544 -0.2941473681409153 -0.17400431352539958
upperback 3.3902840373312904 -0.44580140080226494 1.2746688673862356
thorax 5.373549929761321 -0.2553381065647549 1.383390256547337
lowerneck -12.71020025911591 0.9738482812001461 -1.7425819016004065
upperneck 33.76339236958625 1.5530751529249949 0.9986698019637519
head 13.470192150849897 0.5815914427667744 0.9326373160027374
lclavicle -1.1859570199582127e-17 -8.162223803596882e-16
lhumerus -20.682690578159235 -1.639401455623398 87.98390892026444
lradius 19.115913822326554
lwrist -0.8789706654884544
lhand -23.649507614404968 -2.1295689324646467
lfingers 7.125019999999999
lthumb 2.8158223372923112 27.831591044389818
rclavicle -1.1859570199582127e-17 -8.162223803596882e-16
rhumerus -23.6149836980437 -15.678481815966933 -80.29381715808644
rradius 24.739712479560854
rwrist 33.44778060267249
rhand -17.780203591438212 -27.12889445353658
rfingers 7.125019999999999
rthumb 8.482476413691623 -56.93849489410776
23
root 0.5552749531992308 17.619095341883625 -13.905896582799258 6.937279302596439 -1.6187987088860434 -0.9354664930916512
lfemur -12.523911456908372 6.015946331342209 -18.822706893346908
ltibia 19.012808513188844
lfoot -10.837001563374098 7.112210482484272
ltoes 5.9478167118386285
rfemur -14.410410861739187 -2.7740734309871797 19.33600553227751
rtibia 22.93500832906321
rfoot -14.228100059055839 -4.033101317583752
rtoes 12.154096480685206
lowerback -3.2665467775630654 -0.2977202998578062 -0.2034940060573548
upperback 3.4021740892290304 -0.44886336355958806 1.2757788335760663
thorax 5.365329898520823 -0.2580550315346351 1.4009799442485766
lowerneck -12.743000087749083 0.9613162979502221 -1.7455518839595412
upperneck 33.84329193055571 1.5417352477073323 0.9831438988847299
head 13.512792062875679 0.5732014601338691 0.9266424132107892
lclavicle -1.1859571406054213e-17 -8.162223869275793e-16
lhumerus -20.69279045488448 -1.7917107388547588 88.00900878092438
lradius 19.19721365218777
lwrist -0.761739520435798
lhand -23.68470742559703 -2.2193384802412073
lfingers 7.125019999999999
lthumb 2.7818125289093656 27.74229152852262
rclavicle -1.1859571406054213e-17 -8.162223869275793e-16
rhumerus -23.563284019950025 -15.626781386528965 -80.32961691211635
rradius 24.742212273040614
rwrist 33.41518031875122
rhand -17.782903595408627 -27.128394446486947
rfingers 7.125019999999999
rthumb 8.479886383952056 -56.93809486678002
